<mxfile host="app.diagrams.net" modified="2023-11-09T06:39:46.371Z" agent="Mozilla/5.0 (Macintosh; Intel Mac OS X 10_15_7) AppleWebKit/537.36 (KHTML, like Gecko) Chrome/118.0.0.0 Safari/537.36" etag="eZUPILyTu6dJTtyw3SiS" version="22.0.8" type="github">
  <diagram name="第 1 页" id="FzwRXihXPjpRm9c5ZNX6">
    <mxGraphModel dx="940" dy="490" grid="1" gridSize="10" guides="1" tooltips="1" connect="1" arrows="1" fold="1" page="1" pageScale="1" pageWidth="827" pageHeight="1169" math="0" shadow="0">
      <root>
        <mxCell id="0" />
        <mxCell id="1" parent="0" />
        <mxCell id="6-4zihLAFr6DeTExu2YP-15" style="edgeStyle=orthogonalEdgeStyle;rounded=0;orthogonalLoop=1;jettySize=auto;html=1;entryX=0.5;entryY=0;entryDx=0;entryDy=0;" edge="1" parent="1" source="6-4zihLAFr6DeTExu2YP-1" target="6-4zihLAFr6DeTExu2YP-4">
          <mxGeometry relative="1" as="geometry" />
        </mxCell>
        <mxCell id="6-4zihLAFr6DeTExu2YP-1" value="docker" style="rounded=0;whiteSpace=wrap;html=1;" vertex="1" parent="1">
          <mxGeometry x="80" y="40" width="120" height="40" as="geometry" />
        </mxCell>
        <mxCell id="6-4zihLAFr6DeTExu2YP-16" style="edgeStyle=orthogonalEdgeStyle;rounded=0;orthogonalLoop=1;jettySize=auto;html=1;entryX=0.25;entryY=0;entryDx=0;entryDy=0;" edge="1" parent="1" source="6-4zihLAFr6DeTExu2YP-4" target="6-4zihLAFr6DeTExu2YP-5">
          <mxGeometry relative="1" as="geometry">
            <mxPoint x="150" y="290" as="targetPoint" />
          </mxGeometry>
        </mxCell>
        <mxCell id="6-4zihLAFr6DeTExu2YP-4" value="containerd" style="rounded=0;whiteSpace=wrap;html=1;" vertex="1" parent="1">
          <mxGeometry x="80" y="200" width="120" height="40" as="geometry" />
        </mxCell>
        <mxCell id="6-4zihLAFr6DeTExu2YP-18" style="edgeStyle=orthogonalEdgeStyle;rounded=0;orthogonalLoop=1;jettySize=auto;html=1;entryX=0.5;entryY=0;entryDx=0;entryDy=0;" edge="1" parent="1" source="6-4zihLAFr6DeTExu2YP-5" target="6-4zihLAFr6DeTExu2YP-6">
          <mxGeometry relative="1" as="geometry" />
        </mxCell>
        <mxCell id="6-4zihLAFr6DeTExu2YP-5" value="oci&lt;br&gt;open container interface" style="rounded=0;whiteSpace=wrap;html=1;" vertex="1" parent="1">
          <mxGeometry x="160" y="320" width="120" height="40" as="geometry" />
        </mxCell>
        <mxCell id="6-4zihLAFr6DeTExu2YP-21" style="edgeStyle=orthogonalEdgeStyle;rounded=0;orthogonalLoop=1;jettySize=auto;html=1;entryX=0.5;entryY=0;entryDx=0;entryDy=0;exitX=0.25;exitY=1;exitDx=0;exitDy=0;" edge="1" parent="1" source="6-4zihLAFr6DeTExu2YP-6" target="6-4zihLAFr6DeTExu2YP-7">
          <mxGeometry relative="1" as="geometry" />
        </mxCell>
        <mxCell id="6-4zihLAFr6DeTExu2YP-22" style="edgeStyle=orthogonalEdgeStyle;rounded=0;orthogonalLoop=1;jettySize=auto;html=1;entryX=0.5;entryY=0;entryDx=0;entryDy=0;exitX=0.683;exitY=1.025;exitDx=0;exitDy=0;exitPerimeter=0;" edge="1" parent="1" source="6-4zihLAFr6DeTExu2YP-6" target="6-4zihLAFr6DeTExu2YP-20">
          <mxGeometry relative="1" as="geometry" />
        </mxCell>
        <mxCell id="6-4zihLAFr6DeTExu2YP-6" value="runc" style="rounded=0;whiteSpace=wrap;html=1;" vertex="1" parent="1">
          <mxGeometry x="160" y="400" width="120" height="40" as="geometry" />
        </mxCell>
        <mxCell id="6-4zihLAFr6DeTExu2YP-7" value="容器" style="rounded=0;whiteSpace=wrap;html=1;" vertex="1" parent="1">
          <mxGeometry x="100" y="480" width="80" height="40" as="geometry" />
        </mxCell>
        <mxCell id="6-4zihLAFr6DeTExu2YP-14" style="edgeStyle=orthogonalEdgeStyle;rounded=0;orthogonalLoop=1;jettySize=auto;html=1;entryX=0.5;entryY=0;entryDx=0;entryDy=0;" edge="1" parent="1" source="6-4zihLAFr6DeTExu2YP-8" target="6-4zihLAFr6DeTExu2YP-9">
          <mxGeometry relative="1" as="geometry" />
        </mxCell>
        <mxCell id="6-4zihLAFr6DeTExu2YP-8" value="k8s" style="rounded=0;whiteSpace=wrap;html=1;" vertex="1" parent="1">
          <mxGeometry x="321" y="40" width="120" height="40" as="geometry" />
        </mxCell>
        <mxCell id="6-4zihLAFr6DeTExu2YP-11" style="edgeStyle=orthogonalEdgeStyle;rounded=0;orthogonalLoop=1;jettySize=auto;html=1;entryX=0.75;entryY=0;entryDx=0;entryDy=0;" edge="1" parent="1" source="6-4zihLAFr6DeTExu2YP-9" target="6-4zihLAFr6DeTExu2YP-4">
          <mxGeometry relative="1" as="geometry" />
        </mxCell>
        <mxCell id="6-4zihLAFr6DeTExu2YP-12" style="edgeStyle=orthogonalEdgeStyle;rounded=0;orthogonalLoop=1;jettySize=auto;html=1;entryX=0.5;entryY=0;entryDx=0;entryDy=0;" edge="1" parent="1" source="6-4zihLAFr6DeTExu2YP-9" target="6-4zihLAFr6DeTExu2YP-10">
          <mxGeometry relative="1" as="geometry" />
        </mxCell>
        <mxCell id="6-4zihLAFr6DeTExu2YP-9" value="cri&lt;br&gt;container runtime interface" style="rounded=0;whiteSpace=wrap;html=1;" vertex="1" parent="1">
          <mxGeometry x="321" y="120" width="120" height="40" as="geometry" />
        </mxCell>
        <mxCell id="6-4zihLAFr6DeTExu2YP-17" style="edgeStyle=orthogonalEdgeStyle;rounded=0;orthogonalLoop=1;jettySize=auto;html=1;entryX=0.75;entryY=0;entryDx=0;entryDy=0;" edge="1" parent="1" source="6-4zihLAFr6DeTExu2YP-10" target="6-4zihLAFr6DeTExu2YP-5">
          <mxGeometry relative="1" as="geometry" />
        </mxCell>
        <mxCell id="6-4zihLAFr6DeTExu2YP-10" value="cri-o" style="rounded=0;whiteSpace=wrap;html=1;" vertex="1" parent="1">
          <mxGeometry x="321" y="200" width="120" height="40" as="geometry" />
        </mxCell>
        <mxCell id="6-4zihLAFr6DeTExu2YP-20" value="容器" style="rounded=0;whiteSpace=wrap;html=1;" vertex="1" parent="1">
          <mxGeometry x="241" y="480" width="80" height="40" as="geometry" />
        </mxCell>
      </root>
    </mxGraphModel>
  </diagram>
</mxfile>
